HIERARCHY
ROOT Hips
{
	OFFSET 0.00 0.00 0.00
	CHANNELS 6 Xposition Yposition Zposition Xrotation Yrotation Zrotation
	JOINT RightUpLeg
	{
		OFFSET -3.69398 0.00000 0.00000
		CHANNELS 3 Xrotation Yrotation Zrotation
		JOINT RightLeg
		{
			OFFSET 0.00000 -15.79567 0.00000
			CHANNELS 3 Xrotation Yrotation Zrotation
			JOINT RightFoot
			{
				OFFSET 0.00000 -14.76699 0.00000
				CHANNELS 3 Xrotation Yrotation Zrotation
				JOINT RightToeBase
				{
					OFFSET 0.00000 -1.28446 4.79369
					CHANNELS 3 Xrotation Yrotation Zrotation
					End Site
					{
						OFFSET 0.00000 0.00000 2.95275
					}
				}
			}
		}
	}
	JOINT LeftUpLeg
	{
		OFFSET 3.69398 0.00000 0.00000
		CHANNELS 3 Xrotation Yrotation Zrotation
		JOINT LeftLeg
		{
			OFFSET 0.00000 -15.79567 0.00000
			CHANNELS 3 Xrotation Yrotation Zrotation
			JOINT LeftFoot
			{
				OFFSET 0.00000 -14.76699 0.00000
				CHANNELS 3 Xrotation Yrotation Zrotation
				JOINT LeftToeBase
				{
					OFFSET 0.00000 -1.28446 4.79369
					CHANNELS 3 Xrotation Yrotation Zrotation
					End Site
					{
						OFFSET 0.00000 0.00000 2.95275
					}
				}
			}
		}
	}
	JOINT Spine
	{
		OFFSET 0.00000 2.39296 0.00000
		CHANNELS 3 Xrotation Yrotation Zrotation
		JOINT RightShoulder
		{
			OFFSET 0.00000 13.20741 0.00000
			CHANNELS 3 Xrotation Yrotation Zrotation
			JOINT RightArm
			{
				OFFSET -8.14047 0.00000 0.00000
				CHANNELS 3 Xrotation Yrotation Zrotation
				JOINT RightForeArm
				{
					OFFSET -10.64984 0.00000 0.00000
					CHANNELS 3 Yrotation Zrotation Xrotation
					JOINT RightHand
					{
						OFFSET -8.30462 0.00000 0.00000
						CHANNELS 3 Xrotation Yrotation Zrotation
						End Site
						{
							OFFSET -3.93700 0.00000 0.00000
						}
						JOINT RightHandThumb1
						{
							OFFSET 0.00000 0.00000 0.00000
							CHANNELS 3 Xrotation Zrotation Yrotation
							End Site
							{
								OFFSET 0.00000 0.00000 3.93700
							}
						}
					}
				}
			}
		}
		JOINT LeftShoulder
		{
			OFFSET 0.00000 13.20741 0.00000
			CHANNELS 3 Xrotation Yrotation Zrotation
			JOINT LeftArm
			{
				OFFSET 8.14047 0.00000 0.00000
				CHANNELS 3 Xrotation Yrotation Zrotation
				JOINT LeftForeArm
				{
					OFFSET 10.64984 0.00000 0.00000
					CHANNELS 3 Yrotation Zrotation Xrotation
					JOINT LeftHand
					{
						OFFSET 8.30462 0.00000 0.00000
						CHANNELS 3 Xrotation Yrotation Zrotation
						End Site
						{
							OFFSET 3.93700 0.00000 0.00000
						}
						JOINT LeftHandThumb1
						{
							OFFSET 0.00000 0.00000 0.00000
							CHANNELS 3 Xrotation Zrotation Yrotation
							End Site
							{
								OFFSET 0.00000 0.00000 3.93700
							}
						}
					}
				}
			}
		}
		JOINT Head
		{
			OFFSET 0.00000 19.25010 0.00000
			CHANNELS 3 Xrotation Yrotation Zrotation
			End Site
			{
				OFFSET 0.00000 4.52755 0.00000
			}
		}
	}
}
MOTION
Frames: 12
Frame Time: 0.008333
 -3.9905 29.9425 -6.6869 120.0021 11.1929 5.5387 -119.1028 -6.8605 -31.7137 -12.3326 0.0000 0.0000 6.5419 -11.8882 41.5225 22.5935 -0.0000 -0.0000 -112.8861 19.3329 15.3297 -7.8075 0.0000 -0.0000 1.4157 -0.6484 -23.1697 4.6548 0.0000 -0.0000 57.5668 -5.7421 15.4149 -33.0409 35.4568 -38.8195 -35.7757 -18.5052 83.1726 91.9141 0.0000 -4.4017 26.1810 12.1056 -66.8992 32.8623 0.0000 -24.3270 41.0715 -8.4334 3.2596 -133.7003 -32.2907 -53.3178 -78.3889 -0.0000 5.6023 -37.2129 10.0844 77.0159 33.1476 -0.0000 26.2537 -40.5914 12.2786 -29.8400
 -3.9915 29.9388 -6.6660 119.9491 11.1654 5.5793 -119.1031 -7.0248 -31.6748 -12.3607 -0.0000 -0.0000 6.5923 -11.7331 41.6702 22.4765 0.0000 -0.0000 -112.8606 19.4982 15.3769 -7.7778 -0.0000 0.0000 1.3528 -0.8100 -23.2289 4.5835 -0.0000 0.0000 57.7708 -5.7265 15.4136 -32.9119 35.4085 -39.0614 -35.7974 -18.5030 83.0637 92.1659 0.0000 -4.4222 26.1033 12.1849 -66.6946 32.8623 0.0000 -24.3270 41.0167 -8.4106 3.2024 -133.7209 -32.3798 -53.1859 -78.5067 -0.0000 5.3999 -37.0983 10.2969 76.7014 33.1476 -0.0000 26.2537 -40.5298 12.2416 -29.9679
 -3.9917 29.9366 -6.6495 119.9036 11.1517 5.6059 -119.1024 -7.1717 -31.6493 -12.3960 0.0000 0.0000 6.5929 -11.6264 41.6426 22.5740 0.0000 -0.0000 -112.7975 19.5355 15.3972 -7.7708 -0.0000 -0.0000 1.3016 -0.8542 -23.2570 4.5943 0.0000 0.0000 57.9313 -5.6800 15.4109 -32.6914 35.2849 -39.3389 -35.8738 -18.4774 82.9221 92.3942 0.0000 -4.6735 26.2286 12.3206 -66.5824 32.8623 0.0000 -24.3270 40.9840 -8.3876 3.2020 -133.6717 -32.4279 -53.0418 -78.6936 -0.0000 5.2309 -37.0108 10.5895 76.2999 33.1476 -0.0000 26.2537 -40.4279 12.1359 -30.1071
 -3.9919 29.9363 -6.6363 119.8466 11.1496 5.6214 -119.1058 -7.3291 -31.6435 -12.4270 -0.0000 -0.0000 6.6641 -11.4730 41.7871 22.4839 0.0000 -0.0000 -112.7065 19.5183 15.3946 -7.7786 -0.0000 -0.0000 1.2870 -0.7938 -23.3347 4.7202 -0.0000 -0.0000 58.0671 -5.6374 15.4230 -32.5002 35.2018 -39.5433 -35.9363 -18.4320 82.7416 92.6026 0.0000 -4.8399 26.1576 12.3935 -66.3951 32.8623 0.0000 -24.3270 40.9301 -8.3596 3.2735 -133.4858 -32.3604 -52.8134 -78.9274 -0.0000 5.1130 -36.8691 10.8138 75.9548 33.1476 -0.0000 26.2537 -40.1395 11.9616 -30.2566
 -3.9925 29.9343 -6.6235 119.8171 11.1462 5.6365 -119.1293 -7.4765 -31.6354 -12.4578 -0.0000 -0.0000 6.6556 -11.3408 41.7380 22.5484 -0.0000 -0.0000 -112.6402 19.4835 15.3964 -7.7737 -0.0000 0.0000 1.2637 -0.7811 -23.3048 4.6109 0.0000 0.0000 58.1649 -5.6101 15.4438 -32.3932 35.1712 -39.6819 -35.9633 -18.3468 82.5936 92.7577 0.0000 -5.0092 26.0911 12.3891 -66.3407 32.8623 0.0000 -24.3270 40.9048 -8.3547 3.2570 -133.4406 -32.4472 -52.6805 -78.9956 -0.0000 5.1412 -37.0838 10.7478 76.1405 33.1476 -0.0000 26.2537 -39.9800 11.7944 -30.5008
 -3.9929 29.9342 -6.6139 119.7621 11.1451 5.6298 -119.1160 -7.6227 -31.6437 -12.4991 -0.0000 -0.0000 6.7053 -11.2319 41.8588 22.5569 0.0000 0.0000 -112.6008 19.4821 15.3952 -7.7213 -0.0000 -0.0000 1.2540 -0.8151 -23.3477 4.5368 0.0000 0.0000 58.2583 -5.5555 15.4787 -32.2320 35.1693 -39.8389 -35.9840 -18.3026 82.3986 92.9151 0.0000 -5.1541 26.0490 12.4026 -66.2788 32.8623 0.0000 -24.3270 40.9011 -8.3508 3.2954 -133.3409 -32.4861 -52.4754 -79.0705 -0.0000 4.9123 -36.9951 10.7228 76.1282 33.1476 -0.0000 26.2537 -39.4427 11.6425 -30.6838
 -3.9933 29.9353 -6.6067 119.7348 11.1603 5.6143 -119.1367 -7.7504 -31.6672 -12.5246 0.0000 -0.0000 6.7077 -11.1130 41.8451 22.5801 0.0000 -0.0000 -112.5810 19.4618 15.3758 -7.6710 -0.0000 0.0000 1.2436 -0.8127 -23.3395 4.5166 0.0000 -0.0000 58.3093 -5.5329 15.5363 -32.0356 35.1974 -40.0004 -36.0182 -18.2677 82.2008 93.0667 0.0000 -5.2299 26.0121 12.3998 -66.2492 32.8623 0.0000 -24.3270 40.9023 -8.3467 3.3269 -133.2008 -32.5429 -52.2265 -79.1436 -0.0000 4.8049 -37.0661 10.6928 76.1995 33.1476 -0.0000 26.2537 -39.0005 11.4603 -30.9576
 -3.9934 29.9337 -6.6000 119.7025 11.1665 5.6102 -119.1269 -7.8264 -31.6846 -12.5423 0.0000 -0.0000 6.7096 -11.0478 41.8881 22.6102 -0.0000 0.0000 -112.5555 19.4558 15.3728 -7.6369 0.0000 -0.0000 1.2047 -0.7881 -23.4132 4.6149 0.0000 -0.0000 58.3669 -5.4992 15.5664 -31.9067 35.1890 -40.1227 -36.0226 -18.2270 82.0465 93.2008 0.0000 -5.2404 25.9936 12.4210 -66.1962 32.8623 0.0000 -24.3270 40.8498 -8.3929 3.3924 -132.8559 -32.6122 -51.7841 -79.3744 -0.0000 4.5240 -37.0257 10.8279 76.0141 33.1476 -0.0000 26.2537 -38.6081 11.3003 -31.1971
 -3.9939 29.9337 -6.5945 119.6730 11.1822 5.6018 -119.1297 -7.8954 -31.7107 -12.5448 -0.0000 -0.0000 6.7057 -10.9918 41.9526 22.6608 0.0000 0.0000 -112.4884 19.3869 15.3484 -7.6426 -0.0000 -0.0000 1.2217 -0.7370 -23.4198 4.6012 0.0000 -0.0000 58.4074 -5.4759 15.6203 -31.6904 35.2196 -40.3191 -36.0214 -18.2588 81.8843 93.3802 0.0000 -5.1689 25.8489 12.3974 -66.0997 32.8623 0.0000 -24.3270 40.8273 -8.4237 3.4206 -132.6124 -32.7125 -51.4374 -79.4607 -0.0000 4.3647 -37.0677 10.8273 76.0353 33.1476 -0.0000 26.2537 -38.1658 11.1146 -31.4366
 -3.9946 29.9323 -6.5896 119.6383 11.1934 5.5972 -119.1272 -7.9551 -31.7350 -12.5459 0.0000 -0.0000 6.7166 -10.8784 41.9116 22.5121 0.0000 -0.0000 -112.4781 19.4431 15.3415 -7.6011 -0.0000 -0.0000 1.2053 -0.8821 -23.3624 4.4166 -0.0000 0.0000 58.4491 -5.4433 15.6567 -31.4974 35.2184 -40.4798 -36.0067 -18.2365 81.7122 93.5652 0.0000 -5.2405 25.7981 12.4523 -65.9593 32.8623 0.0000 -24.3270 40.7999 -8.4535 3.4784 -132.2918 -32.7496 -51.0301 -79.6236 -0.0000 4.1178 -37.0668 10.8047 76.0626 33.1476 -0.0000 26.2537 -37.8436 10.8591 -31.6546
 -3.9954 29.9328 -6.5854 119.6130 11.1934 5.6075 -119.1777 -8.0289 -31.7346 -12.4865 -0.0000 0.0000 6.6687 -10.8105 42.0081 22.6232 -0.0000 0.0000 -112.4455 19.4747 15.3465 -7.6233 0.0000 0.0000 1.2249 -0.8789 -23.4561 4.5100 0.0000 0.0000 58.4774 -5.4168 15.6772 -31.2722 35.2218 -40.6774 -35.9916 -18.2513 81.5394 93.7689 0.0000 -5.2305 25.6750 12.4750 -65.8035 32.8623 0.0000 -24.3270 40.7746 -8.4676 3.4938 -132.0495 -32.8432 -50.7204 -79.6850 -0.0000 3.9344 -37.1263 10.8333 76.0565 33.1476 -0.0000 26.2537 -37.4146 10.6607 -31.8889
 -3.9973 29.9319 -6.5838 119.5850 11.1963 5.6051 -119.1554 -8.0292 -31.7460 -12.4673 -0.0000 0.0000 6.6418 -10.8077 42.0328 22.6441 -0.0000 0.0000 -112.4176 19.4926 15.3498 -7.6384 0.0000 0.0000 1.2304 -0.8763 -23.5716 4.6509 0.0000 0.0000 58.4931 -5.3755 15.7175 -31.0751 35.2342 -40.8767 -35.9463 -18.2374 81.4095 93.9378 0.0000 -5.2970 25.6344 12.5063 -65.7117 32.8623 0.0000 -24.3270 40.7470 -8.4745 3.5007 -131.7788 -32.9625 -50.4014 -79.7747 -0.0000 3.6030 -37.1758 10.8642 76.0428 33.1476 -0.0000 26.2537 -36.9159 10.5205 -32.2103
